{
  "title": "Furious.7.2015.1080p.WEBRip.KORSUB.x264.AAC2.0-RARBG",
  "uid": 11899084,
  "size": 5858734168,
  "categoryP": "video",
  "categoryS": "movies",
  "magnet": "?xt=urn:btih:37ef72ccd3ff80440f0e2d705100f03bb5b54d7c&amp;dn=Furious.7.2015.1080p.WEBRip.KORSUB.x264.AAC2.0-RARBG&amp;tr=udp%3A%2F%2Ftracker.openbittorrent.com%3A80&amp;tr=udp%3A%2F%2Fopen.demonii.com%3A1337&amp;tr=udp%3A%2F%2Ftracker.coppersurfer.tk%3A6969&amp;tr=udp%3A%2F%2Fexodus.desync.com%3A6969",
  "seeders": 832,
  "leechers": 175,
  "uploader": "vickey1992",
  "files": 4,
  "time": 1431255388,
  "description": "Video\nID                                       : 1\nFormat                                   : AVC\nFormat/Info                              : Advanced Video Codec\nFormat profile                           : &lt;a class=&quot;__cf_email__&quot; href=&quot;/cdn-cgi/l/email-protection&quot; data-cfemail=&quot;98d0f1fff0d8d4acb6a9&quot;&gt;[email&amp;#160;protected]&lt;/a&gt;&lt;script cf-hash='f9e31' type=&quot;text/javascript&quot;&gt;\n/* &lt;![CDATA[ */!function(){try{var t=&quot;currentScript&quot;in document?document.currentScript:function(){for(var t=document.getElementsByTagName(&quot;script&quot;),e=t.length;e--;)if(t[e].getAttribute(&quot;cf-hash&quot;))return t[e]}();if(t&amp;&amp;t.previousSibling){var e,r,n,i,c=t.previousSibling,a=c.getAttribute(&quot;data-cfemail&quot;);if(a){for(e=&quot;&quot;,r=parseInt(a.substr(0,2),16),n=2;a.length-n;n+=2)i=parseInt(a.substr(n,2),16)^r,e+=String.fromCharCode(i);e=document.createTextNode(e),c.parentNode.replaceChild(e,c)}}}catch(u){}}();/* ]]&gt; */&lt;/script&gt;\nFormat settings, CABAC                   : Yes\nFormat settings, ReFrames                : 4 frames\nCodec ID                                 : avc1\nCodec ID/Info                            : Advanced Video Coding\nDuration                                 : 2h 17mn\nBit rate                                 : 5 457 Kbps\nWidth                                    : 1 920 pixels\nHeight                                   : 800 pixels\nDisplay aspect ratio                     : 2.40:1\nFrame rate mode                          : Constant\nFrame rate                               : 29.970 fps\nColor space                              : YUV\nChroma subsampling                       : 4:2:0\nBit depth                                : 8 bits\nScan type                                : Progressive\nBits/(Pixel*Frame)                       : 0.119\nStream size                              : 5.23 GiB (96%)\nTitle                                    : Furious.7.2015.1080p.WEBRip.KORSUB.x264.AAC2.0-RARBG\nWriting library                          : x264 core 144 r2525M 40bb568\nEncoding settings                        : cabac=1 / ref=4 / deblock=1:0:0 / analyse=0x3:0x113 / me=umh / subme=7 / psy=1 / psy_rd=1.00:0.15 / mixed_ref=1 / me_range=16 / chroma_me=1 / trellis=1 / 8x8dct=1 / cqm=0 / deadzone=21,11 / fast_pskip=1 / chroma_qp_offset=-3 / threads=40 / lookahead_threads=8 / sliced_threads=0 / nr=0 / decimate=1 / interlaced=0 / bluray_compat=0 / constrained_intra=0 / bframes=3 / b_pyramid=2 / b_adapt=2 / b_bias=0 / direct=3 / weightb=1 / open_gop=0 / weightp=2 / keyint=250 / keyint_min=25 / scenecut=40 / intra_refresh=0 / rc_lookahead=50 / rc=crf / mbtree=1 / crf=18.0 / qcomp=0.60 / qpmin=0 / qpmax=69 / qpstep=4 / ip_ratio=1.40 / aq=1:1.00\n\nAudio\nID                                       : 2\nFormat                                   : AAC\nFormat/Info                              : Advanced Audio Codec\nFormat profile                           : LC\nCodec ID                                 : 40\nDuration                                 : 2h 17mn\nBit rate mode                            : Constant\nBit rate                                 : 224 Kbps\nChannel(s)                               : 2 channels\nChannel positions                        : Front: L R\nSampling rate                            : 44.1 KHz\nCompression mode                         : Lossy\nStream size                              : 220 MiB (4%)\nTitle                                    : Furious.7.2015.1080p.WEBRip.KORSUB.x264.AAC2.0-RARBG\n\n\n\n\nNotes:\nCropped black bars. Thats all.\nGreetz to all!",
  "parsed": {
    "xt": "urn:btih:37ef72ccd3ff80440f0e2d705100f03bb5b54d7c",
    "dn": "Furious.7.2015.1080p.WEBRip.KORSUB.x264.AAC2.0-RARBG",
    "tr": [
      "udp://exodus.desync.com:6969",
      "udp://open.demonii.com:1337",
      "udp://tracker.coppersurfer.tk:6969",
      "udp://tracker.openbittorrent.com:80"
    ],
    "infoHash": "37ef72ccd3ff80440f0e2d705100f03bb5b54d7c",
    "infoHashBuffer": {
      "type": "Buffer",
      "data": [
        55,
        239,
        114,
        204,
        211,
        255,
        128,
        68,
        15,
        14,
        45,
        112,
        81,
        0,
        240,
        59,
        181,
        181,
        77,
        124
      ]
    },
    "name": "Furious.7.2015.1080p.WEBRip.KORSUB.x264.AAC2.0-RARBG",
    "announce": [
      "udp://exodus.desync.com:6969",
      "udp://open.demonii.com:1337",
      "udp://tracker.coppersurfer.tk:6969",
      "udp://tracker.openbittorrent.com:80"
    ],
    "urlList": []
  },
  "previous": 1007,
  "peers": 30,
  "last_updated": "2016-12-24T22:14:06.620Z"
}